<?xml version="1.0" standalone="no"?>
<!DOCTYPE svg PUBLIC "-//W3C//DTD SVG 20010904//EN"
 "http://www.w3.org/TR/2001/REC-SVG-20010904/DTD/svg10.dtd">
<svg version="1.0" xmlns="http://www.w3.org/2000/svg"
 width="463.000000pt" height="449.000000pt" viewBox="0 0 463.000000 449.000000"
 preserveAspectRatio="xMidYMid meet">
<metadata>
Created by potrace 1.15, written by Peter Selinger 2001-2017
</metadata>
<g transform="translate(0.000000,449.000000) scale(0.100000,-0.100000)"
fill="#000000" stroke="none">
<path d="M1465 4330 c-11 -5 -31 -9 -45 -9 -14 -1 -57 -23 -95 -51 -38 -27
-74 -50 -80 -50 -5 0 -41 -27 -79 -60 -38 -33 -77 -60 -85 -60 -73 -2 -303
-188 -385 -312 -19 -29 -42 -61 -51 -71 -11 -12 -18 -46 -22 -102 -4 -60 -12
-94 -26 -117 -72 -114 -96 -194 -97 -320 0 -68 -9 -129 -51 -353 -6 -32 -32
-105 -59 -161 -45 -94 -55 -131 -52 -176 3 -32 21 -19 32 22 6 21 28 77 50
123 21 47 41 95 43 108 2 13 11 40 19 59 8 19 21 76 27 125 7 50 20 123 28
163 13 56 14 75 5 81 -9 5 -10 21 -2 61 5 29 10 66 10 82 0 16 8 46 19 66 43
85 53 102 62 102 5 0 11 11 15 25 4 17 13 25 27 25 24 0 148 39 162 52 5 4 17
8 27 8 10 0 22 8 25 18 8 20 43 51 59 52 6 0 21 12 35 26 31 33 107 72 176 90
58 15 148 57 158 74 14 22 -6 23 -53 2 -26 -12 -75 -28 -110 -36 -34 -8 -78
-24 -98 -35 -19 -12 -42 -21 -51 -21 -9 0 -24 -7 -34 -16 -17 -15 -20 -14 -48
5 -16 12 -34 21 -41 21 -23 0 -80 32 -80 46 0 7 10 23 23 36 12 13 31 34 42
48 46 58 175 130 231 130 46 0 107 37 100 62 -2 9 8 27 23 41 28 27 116 69
125 60 3 -3 16 1 30 10 13 9 71 26 128 38 81 16 119 19 178 14 41 -4 86 -7
100 -7 119 4 293 -1 335 -10 27 -5 156 -11 285 -13 346 -5 421 -16 524 -77 39
-23 85 -52 102 -65 17 -13 37 -23 45 -23 17 0 82 -42 122 -79 16 -14 40 -47
53 -73 13 -25 48 -73 77 -105 30 -32 66 -80 80 -108 14 -27 57 -95 96 -150 87
-121 153 -252 181 -360 12 -44 34 -111 50 -150 28 -70 35 -96 64 -255 32 -172
55 -287 71 -360 15 -67 15 -78 1 -115 -14 -36 -14 -45 -1 -89 22 -71 17 -101
-5 -36 -21 58 -27 180 -10 180 14 0 12 42 -4 92 -7 24 -21 88 -31 143 -48 270
-75 386 -109 469 -19 49 -38 105 -40 125 -5 42 -56 167 -88 219 -12 20 -56 84
-96 142 -41 58 -83 123 -94 145 -12 22 -45 67 -74 100 -29 33 -65 82 -80 109
-35 63 -73 97 -159 141 -38 20 -90 49 -115 65 -131 85 -215 100 -595 104 -168
2 -260 6 -279 15 -18 7 -73 11 -142 10 -62 0 -117 2 -122 5 -6 3 -12 1 -14 -5
-3 -9 -26 -8 -88 1 -64 9 -98 9 -140 1 -30 -6 -77 -15 -105 -21 -27 -5 -66
-16 -85 -24 -19 -8 -55 -20 -79 -27 -51 -15 -102 -54 -96 -72 3 -7 1 -17 -3
-23 -12 -20 -104 -64 -132 -64 -15 0 -41 -6 -56 -13 -37 -16 -144 -88 -144
-96 0 -4 -16 -24 -35 -45 -33 -36 -34 -40 -18 -52 10 -7 32 -16 48 -20 17 -3
38 -13 48 -22 14 -12 21 -13 40 -3 12 6 31 13 42 15 11 2 36 13 55 24 19 11
62 26 94 32 54 11 234 92 298 134 15 10 32 15 38 11 6 -4 16 -2 23 3 19 15
154 25 162 12 4 -6 19 -9 34 -5 15 3 42 0 61 -8 19 -7 59 -12 89 -11 44 1 58
-2 77 -21 12 -12 35 -22 51 -23 38 -1 123 -57 123 -81 0 -10 9 -30 20 -44 12
-15 25 -50 30 -79 5 -29 16 -75 25 -102 33 -105 5 -424 -43 -496 -17 -25 -42
-77 -42 -87 0 -3 26 -3 58 -1 41 4 69 0 99 -13 45 -19 133 -94 133 -112 0 -6
-21 10 -47 35 -59 57 -111 80 -164 72 -21 -4 -50 -3 -65 0 -23 6 -26 10 -20
39 3 18 15 44 26 59 11 15 30 67 42 115 29 116 31 356 5 417 -9 21 -17 49 -17
63 0 38 -57 147 -90 172 -17 12 -48 23 -71 25 -27 2 -45 10 -55 25 -12 17 -25
21 -68 21 -30 0 -71 6 -92 14 -22 7 -53 11 -70 9 -18 -3 -35 0 -38 6 -8 13
-125 3 -144 -12 -7 -5 -23 -11 -36 -12 -24 -3 -100 -47 -111 -65 -11 -18 47
-11 115 13 36 13 90 27 120 30 91 10 259 -22 323 -62 18 -11 42 -18 53 -15 16
4 30 -8 63 -52 73 -98 100 -206 81 -328 -9 -63 -9 -80 1 -87 10 -6 7 -23 -14
-76 -28 -71 -34 -113 -17 -113 14 0 12 -27 -4 -63 -27 -62 -36 -100 -30 -137
l6 -37 69 5 c72 5 144 -13 182 -46 38 -33 75 -117 86 -195 15 -104 14 -149 -4
-183 -8 -16 -17 -45 -20 -64 -7 -43 -24 -107 -37 -140 -17 -43 -18 -107 -3
-136 10 -20 11 -30 3 -35 -6 -4 -8 -20 -4 -40 10 -46 9 -65 -5 -134 -13 -67
-14 -97 -7 -172 6 -58 41 -123 66 -123 23 0 87 -23 104 -37 8 -7 59 -15 114
-19 101 -6 197 -31 243 -63 31 -21 106 -17 134 7 24 22 21 72 -9 148 -25 64
-25 104 0 104 8 0 26 16 40 35 15 19 32 35 39 35 14 0 63 91 72 132 l5 27 37
-21 c29 -18 53 -22 115 -23 89 0 83 9 67 -109 -11 -73 -10 -91 10 -181 12 -55
22 -109 22 -120 0 -32 38 -177 53 -199 7 -12 19 -39 26 -60 7 -22 28 -60 47
-84 22 -29 33 -52 29 -65 -9 -35 64 -157 135 -227 75 -75 89 -106 89 -201 0
-78 8 -105 44 -144 14 -15 26 -36 26 -47 0 -34 28 -86 69 -131 51 -55 53 -85
12 -212 -37 -112 -32 -120 72 -130 40 -4 86 -13 104 -20 19 -8 67 -13 117 -13
73 1 85 4 89 20 4 14 15 18 50 18 55 0 57 4 57 119 0 48 5 92 11 98 14 14 -5
123 -32 180 -10 24 -19 47 -19 53 0 5 -16 35 -35 65 -30 46 -33 56 -20 61 11
5 15 21 15 60 l0 54 65 0 c63 0 65 1 65 25 0 28 -30 45 -80 45 -15 0 -30 7
-34 15 -3 8 -12 15 -20 15 -14 0 -15 6 -36 133 -11 67 -91 258 -111 265 -19 7
-8 21 21 26 17 3 44 9 60 12 34 6 38 24 13 49 -14 14 -30 16 -84 13 -65 -5
-68 -4 -88 23 l-22 29 53 24 c60 28 81 45 121 99 60 80 -1 91 -101 18 -117
-85 -129 -86 -153 -14 -11 34 -10 36 30 77 42 43 50 61 30 68 -9 3 -9 10 -2
23 8 14 7 45 -3 105 -14 91 -16 100 -62 227 -17 45 -33 105 -37 133 -8 58 -25
67 -25 13 l0 -38 -18 27 c-15 23 -17 39 -10 112 5 65 3 98 -8 138 -8 29 -19
75 -24 102 -5 26 -14 62 -20 80 -5 17 -9 43 -9 56 1 14 -3 43 -8 65 -6 22 -11
49 -11 60 0 42 -47 200 -107 355 -7 19 -25 73 -40 119 -15 47 -40 103 -56 125
-65 90 -99 142 -112 171 -8 17 -21 36 -30 44 -10 7 -17 18 -17 23 0 6 -20 39
-45 75 -25 35 -45 68 -45 73 0 12 -24 43 -66 84 -17 17 -43 48 -58 69 -15 20
-32 37 -38 37 -5 0 -33 20 -60 45 -28 25 -58 45 -67 45 -10 0 -30 14 -46 30
-16 17 -37 30 -47 30 -10 0 -35 11 -56 25 -51 33 -116 55 -181 61 -30 3 -59 8
-65 12 -15 9 -61 11 -290 11 -109 0 -221 5 -250 10 -28 6 -116 15 -196 21 -79
7 -153 16 -164 22 -25 13 -293 20 -321 8z m1945 -1755 c9 -11 22 -14 40 -10
18 4 31 1 40 -10 17 -21 76 -51 117 -59 49 -11 56 -27 27 -64 -18 -23 -34 -32
-54 -32 -26 0 -28 -3 -35 -52 -11 -96 -28 -152 -66 -227 -48 -93 -57 -147 -35
-201 9 -22 16 -47 16 -55 0 -18 -31 -20 -48 -3 -9 9 -12 1 -12 -39 0 -36 4
-53 15 -57 11 -4 15 -21 15 -62 0 -50 8 -96 42 -229 15 -59 56 -152 94 -215
19 -30 42 -78 52 -106 9 -28 39 -75 65 -105 26 -29 47 -58 47 -64 0 -18 -109
110 -115 135 -3 14 -18 48 -32 75 -110 212 -113 221 -134 332 -5 29 -14 64
-19 78 -6 15 -10 50 -10 80 0 34 -5 59 -15 69 -16 15 -19 99 -6 146 7 24 7 24
20 -8 7 -18 17 -32 22 -32 9 0 -2 37 -23 77 -14 28 2 94 42 178 45 94 71 181
73 251 2 48 6 64 17 64 11 0 11 3 2 12 -19 19 -14 30 11 26 17 -2 22 -9 20
-31 -2 -34 7 -34 35 -2 28 32 28 45 0 45 -30 1 -107 36 -135 62 -13 12 -23 16
-23 10 0 -17 -47 -15 -54 3 -3 9 -18 15 -40 15 -32 0 -36 -3 -45 -37 -5 -21
-13 -60 -17 -88 -7 -57 -23 -79 -76 -106 -21 -11 -38 -24 -38 -29 0 -5 -11
-12 -24 -16 -16 -4 -27 -17 -34 -42 -18 -61 -21 -73 -32 -166 l-11 -89 -50
-45 c-27 -24 -57 -58 -66 -75 -13 -26 -17 -28 -25 -14 -19 34 -28 15 -28 -58
0 -51 4 -77 13 -82 17 -10 41 -97 34 -118 -13 -32 -94 -14 -171 39 -23 15 -47
24 -57 21 -9 -3 -20 -1 -24 5 -3 5 -39 11 -78 11 -104 2 -153 16 -60 18 110 2
184 -17 265 -66 37 -23 118 -32 118 -14 0 17 -23 76 -35 91 -7 8 -14 51 -16
95 -4 79 -4 80 21 81 16 1 47 23 88 64 l63 62 10 91 c16 141 34 184 94 223 92
60 105 74 105 104 0 47 21 129 37 145 19 20 67 19 83 0z m36 -66 c49 -38 54
-45 50 -73 -3 -17 -8 -53 -11 -81 -9 -69 -82 -241 -113 -265 -29 -23 -93 -26
-172 -8 l-52 12 7 40 c4 23 9 58 11 79 7 66 24 90 74 104 36 10 51 22 73 55
18 28 26 51 22 65 -3 13 -1 31 5 40 5 10 14 30 20 46 5 15 14 27 20 27 6 0 36
-19 66 -41z"/>
<path d="M3409 2478 c-1 -2 -3 -35 -5 -75 -4 -102 -39 -210 -78 -242 -20 -17
-21 -51 -2 -51 22 0 74 69 95 125 29 78 33 245 6 245 -8 0 -16 -1 -16 -2z"/>
<path d="M1210 2884 c-30 -9 -68 -18 -83 -21 -15 -3 -56 -25 -90 -49 -34 -23
-94 -59 -133 -78 -39 -20 -83 -47 -98 -61 -15 -14 -35 -25 -46 -25 -10 0 -21
-9 -25 -19 -6 -19 17 -112 33 -138 9 -14 84 -43 130 -50 18 -3 35 -9 38 -14 3
-5 20 -9 37 -9 30 0 34 4 46 45 24 81 53 106 191 164 173 74 216 81 333 53
176 -41 257 -39 257 7 0 19 -29 51 -47 51 -6 0 -17 7 -24 16 -13 16 -112 64
-131 64 -6 0 -26 7 -46 16 -21 9 -46 20 -57 25 -42 18 -145 39 -186 38 -24 0
-69 -7 -99 -15z"/>
<path d="M1330 2591 c-30 -11 -68 -22 -85 -25 -16 -4 -48 -22 -70 -41 -39 -33
-40 -34 -25 -62 14 -25 22 -28 71 -31 45 -2 61 2 92 23 21 14 41 25 46 25 4 0
16 9 27 21 11 12 26 18 39 15 12 -3 31 5 50 20 l30 26 -32 -7 c-30 -6 -33 -4
-33 18 0 41 -28 46 -110 18z"/>
<path d="M2006 2496 c6 -24 5 -24 -34 -15 -22 5 -52 13 -66 19 -39 14 -259 13
-293 -2 -52 -23 -133 -89 -168 -136 -75 -103 -135 -239 -135 -309 0 -47 27
-44 36 5 9 50 74 185 118 247 38 53 100 97 124 88 8 -4 21 2 29 13 12 16 31
20 126 24 144 6 146 26 2 24 -87 -2 -103 0 -98 13 5 12 29 14 142 11 112 -3
146 -8 193 -26 55 -22 139 -92 164 -137 7 -11 15 -17 18 -13 4 3 -4 29 -18 57
l-26 51 27 -10 c16 -6 50 -22 76 -36 36 -19 52 -23 60 -15 13 13 13 12 -58 70
-43 36 -183 101 -215 101 -6 0 -8 -10 -4 -24z"/>
<path d="M415 2500 c-11 -4 -35 -25 -52 -45 -33 -37 -42 -68 -23 -80 6 -3 10
5 10 19 0 14 3 27 8 30 4 2 6 -13 4 -35 -7 -72 65 -174 85 -121 9 24 34 41 60
42 13 0 41 7 63 16 31 12 40 22 40 39 0 23 1 23 28 9 37 -19 42 -18 42 14 0
35 -5 40 -66 85 -47 34 -57 37 -115 36 -35 0 -73 -4 -84 -9z"/>
<path d="M580 2271 c-38 -10 -101 -52 -97 -65 4 -14 95 -76 112 -76 8 0 27 28
45 62 29 58 30 64 13 75 -18 14 -33 15 -73 4z"/>
<path d="M691 2103 c-19 -37 -47 -87 -63 -111 -71 -108 -108 -189 -114 -251
-7 -59 -5 -63 22 -92 36 -39 75 -59 111 -59 51 0 58 -12 54 -93 -5 -123 52
-257 148 -352 28 -27 51 -53 51 -58 0 -5 14 -29 30 -54 17 -24 30 -46 30 -48
0 -2 14 -27 30 -55 17 -28 30 -53 30 -55 0 -3 -44 17 -97 43 -136 68 -144 70
-268 75 -125 5 -215 -8 -327 -49 -40 -15 -91 -33 -113 -41 -65 -23 -142 -104
-129 -136 12 -31 34 -27 75 15 22 23 57 48 77 56 184 71 338 105 441 98 66 -4
144 -29 254 -81 47 -22 61 -24 73 -14 17 14 15 16 41 -41 29 -62 32 -79 43
-208 8 -95 14 -118 36 -152 15 -22 35 -40 45 -40 10 0 20 -4 23 -9 11 -17 121
-68 160 -74 49 -8 134 8 166 31 35 26 70 34 70 16 0 -28 24 -13 82 51 33 36
65 65 72 65 7 0 29 18 51 40 28 29 41 36 47 27 6 -8 21 2 53 38 25 28 45 44
45 38 0 -25 18 -12 59 42 23 30 48 55 55 55 7 0 25 17 38 38 14 20 52 64 84
97 33 33 79 88 104 122 25 33 76 102 113 153 48 65 66 98 62 111 -4 13 -2 17
7 14 8 -3 22 14 38 47 19 40 35 58 65 73 35 18 85 74 85 96 0 5 -9 9 -19 9
-11 0 -22 4 -25 9 -10 15 71 1 193 -34 130 -37 140 -46 141 -134 0 -49 3 -56
38 -88 20 -19 53 -45 72 -58 19 -12 41 -30 49 -39 7 -9 20 -16 27 -16 15 0 50
-16 188 -86 74 -37 81 -44 79 -69 -3 -38 -37 -84 -87 -118 -102 -70 -134 -94
-157 -116 -13 -13 -36 -31 -52 -41 -15 -9 -66 -52 -113 -96 -107 -98 -99 -92
-244 -165 -122 -61 -341 -197 -357 -221 -4 -7 -20 -19 -35 -27 -14 -7 -53 -35
-85 -62 -32 -27 -63 -49 -69 -49 -6 0 -22 15 -34 33 -27 39 -75 74 -126 92
-20 7 -39 17 -43 23 -3 6 -19 16 -34 21 -37 14 -165 41 -196 41 -44 0 -5 -25
61 -39 117 -24 283 -101 307 -143 9 -15 28 -33 43 -39 26 -11 35 -5 160 88 73
54 158 114 188 133 30 19 57 37 60 40 9 9 52 32 190 101 91 46 148 81 175 109
62 64 214 192 280 237 181 122 234 201 168 249 -26 19 -56 34 -203 102 -100
46 -115 55 -167 106 -41 38 -53 56 -54 80 0 17 -8 56 -17 86 -15 46 -22 55
-47 62 -17 4 -66 16 -110 28 -141 38 -149 40 -192 40 -41 0 -57 -12 -30 -24 6
-3 3 -4 -9 -1 -26 6 -58 -27 -114 -120 -24 -38 -63 -103 -88 -144 -25 -41 -86
-117 -135 -168 -50 -51 -131 -146 -180 -211 -49 -64 -101 -130 -116 -145 -49
-54 -208 -176 -237 -183 -16 -4 -36 -12 -44 -19 -32 -26 -94 -33 -165 -18 -74
15 -104 36 -193 137 -25 28 -51 51 -56 51 -6 0 -10 -15 -8 -35 6 -84 12 -99
56 -135 24 -19 46 -35 49 -35 3 0 19 -12 35 -27 16 -16 41 -36 56 -46 35 -24
33 -33 -13 -44 -30 -8 -48 -6 -84 7 -45 17 -161 94 -184 122 -6 7 -14 60 -17
117 -7 121 -25 189 -73 284 -33 65 -34 69 -23 122 6 30 15 57 19 60 5 2 25 -5
47 -15 66 -34 141 -10 234 76 75 70 90 98 90 167 0 67 -2 66 167 74 l122 6 39
-39 c22 -21 48 -46 58 -55 11 -9 36 -37 57 -63 39 -47 65 -57 87 -31 16 19 2
79 -39 161 -15 32 -32 70 -36 84 -10 34 -23 48 -66 75 -19 13 -53 39 -74 59
-42 40 -159 89 -212 89 -18 0 -29 5 -26 10 3 6 2 7 -4 4 -5 -3 -40 -2 -78 4
-44 6 -72 6 -79 -1 -7 -5 -50 -16 -97 -25 -46 -8 -129 -25 -185 -36 -78 -16
-106 -19 -122 -10 -11 6 -34 11 -51 11 -30 0 -45 15 -18 18 65 8 158 32 180
47 20 13 27 25 27 50 0 18 -6 37 -12 42 -20 16 -121 23 -143 10 -44 -24 -106
-81 -111 -103 -4 -13 -20 -36 -37 -50 -27 -23 -35 -24 -86 -18 -67 8 -99 25
-129 68 -25 37 -23 73 9 140 11 22 19 45 19 52 0 6 7 18 16 25 9 7 20 22 25
34 5 11 19 36 30 55 29 48 81 169 77 181 -2 5 -18 -21 -37 -58z m622 -824
c-29 -49 -73 -89 -133 -119 -30 -15 -59 -38 -65 -51 -5 -12 -16 -24 -22 -27
-23 -7 -26 28 -5 75 16 36 30 52 64 70 107 55 164 83 171 83 5 0 0 -14 -10
-31z"/>
<path d="M2660 1458 c0 -25 -69 -96 -99 -103 -27 -6 -61 -52 -61 -84 0 -10
-24 -47 -100 -151 -22 -30 -52 -73 -67 -95 -44 -67 -140 -181 -168 -199 -14
-10 -39 -38 -55 -63 -16 -25 -40 -51 -52 -57 -13 -6 -39 -33 -58 -59 -22 -29
-43 -47 -56 -47 -11 0 -35 -16 -54 -35 -19 -19 -40 -35 -48 -35 -8 0 -32 -16
-53 -35 -22 -19 -45 -35 -52 -35 -12 0 -107 -98 -107 -111 0 -10 108 -46 195
-64 113 -23 172 -44 179 -61 3 -7 12 -14 21 -14 38 0 115 -53 149 -102 12 -17
20 -20 30 -13 23 16 140 105 160 122 11 9 56 40 100 69 45 29 87 58 93 64 7 6
81 45 164 87 133 66 163 86 243 160 50 47 127 111 171 144 169 124 235 180
241 204 10 40 4 45 -181 130 -44 20 -85 39 -91 43 -47 30 -95 66 -131 100 -38
35 -43 45 -44 83 0 24 -6 59 -13 78 -11 32 -17 34 -106 58 -136 36 -150 38
-150 21z"/>
<path d="M1288 1025 c-29 -36 -84 -88 -121 -116 -67 -49 -84 -80 -47 -87 19
-3 130 67 130 82 0 7 21 32 46 56 42 40 74 92 74 120 0 27 -34 4 -82 -55z"/>
</g>
</svg>
